<svg xmlns="http://www.w3.org/2000/svg" width="1200" height="630" viewBox="0 0 1200 630">
  <defs>
    <pattern id="grid" width="80" height="80" patternUnits="userSpaceOnUse">
      <path d="M 80 0 L 0 0 0 80" fill="none" stroke="rgba(255,255,255,0.03)" stroke-width="0.5"/>
    </pattern>
    <radialGradient id="glow" cx="50%" cy="42%" r="35%">
      <stop offset="0%" stop-color="rgba(21,128,61,0.08)"/>
      <stop offset="100%" stop-color="rgba(10,10,10,0)"/>
    </radialGradient>
  </defs>

  <rect width="1200" height="630" fill="#0a0a0a"/>
  <rect width="1200" height="630" fill="url(#grid)"/>
  <rect width="1200" height="630" fill="url(#glow)"/>

  <!-- Formulas -->
  <g font-family="'Courier New', monospace" font-size="12" fill="#15803d" opacity="0.25">
    <text x="70" y="80">U-Recall</text>
    <text x="1060" y="65">ECE</text>
    <text x="55" y="560">EpCE</text>
    <text x="1070" y="575">DLA</text>
    <text x="80" y="320">EM1..EM5</text>
    <text x="1040" y="310">GOLD v4.5</text>
  </g>

  <!-- Orb rings -->
  <circle cx="600" cy="240" r="120" fill="none" stroke="rgba(255,255,255,0.04)" stroke-width="1"/>
  <circle cx="600" cy="240" r="90" fill="none" stroke="rgba(255,255,255,0.06)" stroke-width="1"/>
  <circle cx="600" cy="240" r="60" fill="none" stroke="rgba(255,255,255,0.08)" stroke-width="1"/>

  <!-- Logo — exact landing v6: circle + path, properly centered -->
  <g transform="translate(600, 240) scale(2.588) translate(-18, -18)">
    <circle cx="18" cy="18" r="17" fill="#fafafa"/>
    <path d="M16 10L20 10L20 26L16 26L16 14L13 14L13 10L16 10Z" fill="#0a0a0a"/>
  </g>

  <!-- ONTO -->
  <text x="600" y="365" text-anchor="middle" font-family="Arial, Helvetica, sans-serif" font-weight="800" font-size="64" fill="#fafafa" letter-spacing="8">ONTO</text>

  <!-- Accent line -->
  <rect x="520" y="383" width="160" height="2" rx="1" fill="#15803d" opacity="0.6"/>

  <!-- Subtitle -->
  <text x="600" y="425" text-anchor="middle" font-family="Arial, Helvetica, sans-serif" font-weight="400" font-size="18" fill="#a0a0a0">Epistemic Risk Standard</text>

  <!-- Status -->
  <text x="600" y="460" text-anchor="middle" font-family="'Courier New', monospace" font-weight="400" font-size="13" fill="#606060">Protocol v3.0  ·  Ed25519 Signed  ·  GOLD v4.5</text>

  <!-- CTA -->
  <rect x="460" y="495" width="280" height="40" rx="6" fill="#1a1a1a" stroke="#333333" stroke-width="1"/>
  <text x="488" y="520" font-family="'Courier New', monospace" font-size="14" fill="#606060">$</text>
  <text x="506" y="520" font-family="'Courier New', monospace" font-weight="600" font-size="14" fill="#fafafa">pip install onto-standard</text>
</svg>
